<?xml version="1.0" encoding="UTF-8" standalone="no"?>
<svg
   xmlns:svg="http://www.w3.org/2000/svg"
   xmlns="http://www.w3.org/2000/svg"
   version="1.1"
   x="0px"
   y="0px"
   width="400"
   height="600"
   viewBox="0 0 400 600"
   xml:space="preserve">
<g transform="matrix(1.3682043,0,0,1.3682043,-100.00205,0)">
	<path
   style="fill:#fd2600"
   d="M 322.621,42.825 C 294.073,14.272 259.619,0 219.268,0 178.915,0 144.465,14.275 115.915,42.825 c -28.549,28.549 -42.825,63 -42.825,103.353 0,20.749 3.14,37.782 9.419,51.106 l 104.21,220.986 c 2.856,6.276 7.283,11.225 13.278,14.838 5.996,3.617 12.419,5.428 19.273,5.428 6.852,0 13.278,-1.811 19.273,-5.428 5.996,-3.613 10.513,-8.562 13.559,-14.838 L 356.02,197.284 c 6.282,-13.324 9.424,-30.358 9.424,-51.106 0.005,-40.353 -14.268,-74.8 -42.823,-103.353 z m -63.83153,142.87708 c -10.91648,10.9157 -24.08997,16.37585 -39.52202,16.37585 -15.43205,0 -28.60555,-5.46015 -39.52508,-16.37585 -10.918,-10.91953 -16.37815,-24.09303 -16.37815,-39.52508 0,-15.43052 5.46015,-28.60631 16.37815,-39.52278 10.91953,-10.918004 24.09532,-16.378152 39.52508,-16.378152 15.43205,0 28.60554,5.460148 39.52202,16.378152 10.91723,10.9157 16.37738,24.09226 16.37738,39.52278 0,15.43052 -5.45938,28.60325 -16.37738,39.52508 z" />
</g>
</svg>
